<svg width="600" height="400" xmlns="http://www.w3.org/2000/svg" font-family="monospace" font-size="12px">
    <style>
        .box { fill: #282a36; stroke: #bd93f9; stroke-width: 1; }
        .text { fill: #f8f8f2; }
        .line { stroke: #6272a4; stroke-width: 1.5; marker-end: url(#arrow); }
        .core { fill: #ff79c6; }
        .manager { fill: #8be9fd; }
        .service { fill: #50fa7b; }
        .handler { fill: #f1fa8c; }
    </style>
    <defs><marker id="arrow" viewBox="0 0 10 10" refX="5" refY="5" markerWidth="6" markerHeight="6" orient="auto-start-reverse"><path d="M 0 0 L 10 5 L 0 10 z" fill="#6272a4"/></marker></defs>
    
    <g><rect x="250" y="20" width="100" height="40" rx="5" class="box core"/><text x="300" y="45" text-anchor="middle" class="text">Bot.js</text></g>
    <g><rect x="50" y="120" width="140" height="40" rx="5" class="box handler"/><text x="120" y="145" text-anchor="middle" class="text">EventHandler.js</text></g>
    <g><rect x="230" y="120" width="140" height="40" rx="5" class="box manager"/><text x="300" y="145" text-anchor="middle" class="text">StateManager.js</text></g>
    <g><rect x="410" y="120" width="140" height="40" rx="5" class="box manager"/><text x="480" y="145" text-anchor="middle" class="text">CommandManager.js</text></g>
    <g><rect x="50" y="220" width="140" height="40" rx="5" class="box core"/><text x="120" y="245" text-anchor="middle" class="text">CognitiveCore.js</text></g>
    <g><rect x="230" y="220" width="140" height="40" rx="5" class="box service"/><text x="300" y="245" text-anchor="middle" class="text">AIServiceManager.js</text></g>
    <g><rect x="410" y="220" width="140" height="40" rx="5" class="box service"/><text x="480" y="245" text-anchor="middle" class="text">Logger.js</text></g>

    <path d="M 280 60 V 120" class="line"/> <path d="M 320 60 V 120" class="line"/>
    <path d="M 280,60 C 280,90 150,90 150,120" class="line" fill="none"/>
    <path d="M 320,60 C 320,90 450,90 450,120" class="line" fill="none"/>
    <path d="M 120 160 V 220" class="line"/> <path d="M 300 160 V 220" class="line"/>
    <path d="M 480 160 V 220" class="line"/>
    <path d="M 190,140 C 220,160 220,200 190,220" class="line" fill="none"/>
</svg>